name C:\Users\u0101727\Documents\MyRepositories\upper-imu-dc\Results\main_tracking\Case_63\kinematics.mot
datacolumns 10
datarows 37
range 0.70000000 1.06000000
endheader 
time	clav_prot	clav_elev	scapula_abduction	scapula_elevation	scapula_upward_rot	scapula_winging	plane_elv	shoulder_elv	axial_rot	
          0.70000000	        -22.10460438	          8.81799597	        -13.48896394	          4.64906542	         17.97067414	          2.31263985	         39.37377916	          6.71220224	         -7.23938655	
          0.71000000	        -22.28243183	          8.58762178	        -13.76042667	          4.48774414	         17.87177083	          2.32879510	         39.92925798	          7.18235138	         -7.78718297	
          0.72000000	        -22.30560154	          8.34333975	        -13.73543707	          4.32403468	         17.78557959	          2.34223223	         40.48466784	          7.66579508	         -8.33815431	
          0.73000000	        -22.33054530	          8.09775629	        -13.70558506	          4.15576357	         17.71236317	          2.35280248	         41.03849329	          8.16261934	         -8.89829834	
          0.74000000	        -22.35649665	          7.85050106	        -13.66912763	          3.98260155	         17.65251443	          2.36047481	         41.58994333	          8.67253929	         -9.46937346	
          0.75000000	        -22.38305448	          7.60175467	        -13.62545889	          3.80469933	         17.60612586	          2.36535147	         42.13932168	          9.19528906	        -10.05145652	
          0.76000000	        -22.40992003	          7.35200513	        -13.57438320	          3.62247158	         17.57316024	          2.36758289	         42.68741207	          9.73044224	        -10.64346216	
          0.77000000	        -22.43688024	          7.10192467	        -13.51599289	          3.43649483	         17.55348368	          2.36734000	         43.23526354	         10.27743689	        -11.24363535	
          0.78000000	        -22.46377008	          6.85228813	        -13.45052699	          3.24743564	         17.54690838	          2.36479009	         43.78401538	         10.83559101	        -11.84982197	
          0.79000000	        -22.49045833	          6.60392407	        -13.37829758	          3.05600502	         17.55322587	          2.36008008	         44.33475298	         11.40413241	        -12.45968923	
          0.80000000	        -22.51685388	          6.35768141	        -13.29966620	          2.86292509	         17.57223454	          2.35332450	         44.88838503	         11.98223201	        -13.07091042	
          0.81000000	        -22.54290539	          6.11439500	        -13.21501169	          2.66889643	         17.60376377	          2.34459687	         45.44554696	         12.56904485	        -13.68133505	
          0.82000000	        -22.56860417	          5.87485561	        -13.12471595	          2.47457230	         17.64768507	          2.33392767	         46.00653494	         13.16374591	        -14.28914381	
          0.83000000	        -22.59398020	          5.63977875	        -13.02914058	          2.28053362	         17.70391918	          2.32130544	         46.57126797	         13.76557098	        -14.89298799	
          0.84000000	        -22.61909051	          5.40977585	        -12.92860149	          2.08727012	         17.77242913	          2.30668436	         47.13928088	         14.37384766	        -15.49210711	
          0.85000000	        -22.64400509	          5.18533029	        -12.82334883	          1.89516802	         17.85320274	          2.28999626	         47.70974342	         14.98801695	        -16.08642080	
          0.86000000	        -22.66879485	          4.96677880	        -12.71355964	          1.70450409	         17.94622582	          2.27116615	         48.28150164	         15.60764312	        -16.67658798	
          0.87000000	        -22.69352333	          4.75429778	        -12.59934168	          1.51544393	         18.05145255	          2.25012876	         48.85313570	         16.23241546	        -17.26402816	
          0.88000000	        -22.71824379	          4.54789554	        -12.48074762	          1.32804340	         18.16877830	          2.22684393	         49.42302628	         16.86214408	        -17.85090046	
          0.89000000	        -22.74300141	          4.34741015	        -12.35779531	          1.14225183	         18.29802073	          2.20130873	         49.98942118	         17.49675177	        -18.44003802	
          0.90000000	        -22.76784079	          4.15251403	        -12.23049199	          0.95791662	         18.43891301	          2.17356498	         50.55049700	         18.13626354	        -19.03483850	
          0.91000000	        -22.79281577	          3.96272434	        -12.09885535	          0.77478849	         18.59111106	          2.14370136	         51.10441335	         18.78079472	        -19.63911299	
          0.92000000	        -22.81799877	          3.77742081	        -11.96292644	          0.59252840	         18.75421572	          2.11184976	         51.64935903	         19.43053788	        -20.25689731	
          0.93000000	        -22.84349085	          3.59587276	        -11.82277685	          0.41071795	         18.92780944	          2.07817565	         52.18359183	         20.08574935	        -20.89223127	
          0.94000000	        -22.86942648	          3.41727392	        -11.67850016	          0.22887276	         19.11150592	          2.04286287	         52.70547396	         20.74673658	        -21.54891258	
          0.95000000	        -22.89596570	          3.24078585	        -11.53017815	          0.04646160	         19.30500712	          2.00609443	         53.21350380	         21.41384320	        -22.23023599	
          0.96000000	        -22.92327104	          3.06559032	        -11.37782363	         -0.13706592	         19.50815784	          1.96803177	         53.70634427	         22.08742452	        -22.93873208	
          0.97000000	        -22.95147142	          2.89094852	        -11.22131130	         -0.32224157	         19.72098501	          1.92879606	         54.18285126	         22.76780564	        -23.67592571	
          0.98000000	        -22.98062088	          2.71626304	        -11.06031596	         -0.50953173	         19.94371132	          1.88845461	         54.64210506	         23.45521985	        -24.44213697	
          0.99000000	        -23.01066440	          2.54113745	        -10.89428073	         -0.69928568	         20.17673906	          1.84701371	         55.08344494	         24.14973278	        -25.23634767	
          1.00000000	        -23.04142213	          2.36542686	        -10.72242950	         -0.89168582	         20.42060912	          1.80441702	         55.50650231	         24.85116723	        -26.05615128	
          1.01000000	        -23.07259537	          2.18927216	        -10.54382013	         -1.08670863	         20.67594643	          1.76054751	         55.91122441	         25.55904729	        -26.89779516	
          1.02000000	        -23.10378913	          2.01311112	        -10.35741972	         -1.28410380	         20.94340275	          1.71523159	         56.29788069	         26.27257599	        -27.75631174	
          1.03000000	        -23.13454165	          1.83766361	        -10.16217981	         -1.48339501	         21.22360475	          1.66824494	         56.66704709	         26.99065079	        -28.62572285	
          1.04000000	        -23.16435175	          1.66389424	         -9.95709394	         -1.68390015	         21.51711201	          1.61931965	         57.01956759	         27.71191303	        -29.49929415	
          1.05000000	        -23.19269818	          1.49296038	         -9.74123073	         -1.88476489	         21.82438562	          1.56815263	         57.35649776	         28.43482021	        -30.36981519	
          1.06000000	        -23.21905217	          1.32615330	         -9.51374955	         -2.08500293	         22.14576415	          1.51441562	         57.67903959	         29.15772745	        -31.22988486	
